{"asset":{"version":"2.0","generator":"Blockbench 5.1.4 glTF exporter"},"scenes":[{"nodes":[1],"name":"blockbench_export"}],"scene":0,"nodes":[{"name":"bone"},{"translation":[0.025,0.84116125,-0.956694375],"name":"bone","mesh":0,"children":[0],"skin":0}],"bufferViews":[{"buffer":0,"byteOffset":0,"byteLength":9216,"target":34962,"byteStride":12},{"buffer":0,"byteOffset":9216,"byteLength":9216,"target":34962,"byteStride":12},{"buffer":0,"byteOffset":18432,"byteLength":6144,"target":34962,"byteStride":8},{"buffer":0,"byteOffset":24576,"byteLength":6144,"target":34962,"byteStride":8},{"buffer":0,"byteOffset":30720,"byteLength":12288,"target":34962,"byteStride":16},{"buffer":0,"byteOffset":43008,"byteLength":2304,"target":34963},{"buffer":0,"byteOffset":45312,"byteLength":64}],"buffers":[{"byteLength":45376,"uri":"data:application/octet-stream;base64,"}],"accessors":[{"bufferView":0,"componentType":5126,"count":768,"max":[0.13875000178813934,0.02157125063240528,2.4503555297851562],"min":[-0.1007106751203537,-0.8597280979156494,-0.36205562949180603],"type":"VEC3"},{"bufferView":1,"componentType":5126,"count":768,"max":[1,1,1],"min":[-1,-1,-1],"type":"VEC3"},{"bufferView":2,"componentType":5126,"count":768,"max":[0.6875,0.6875],"min":[0,0],"type":"VEC2"},{"bufferView":3,"componentType":5123,"count":768,"max":[0,0,0,0],"min":[0,0,0,0],"type":"VEC4"},{"bufferView":4,"componentType":5126,"count":768,"max":[0,1,0,0],"min":[0,1,0,0],"type":"VEC4"},{"bufferView":5,"componentType":5123,"count":1152,"max":[767],"min":[0],"type":"SCALAR"},{"bufferView":6,"componentType":5126,"count":1,"max":[1,0,0,0,0,1,0,0,0,0,1,0,0,0,0,1],"min":[1,0,0,0,0,1,0,0,0,0,1,0,0,0,0,1],"type":"MAT4"}],"materials":[{"pbrMetallicRoughness":{"metallicFactor":0,"roughnessFactor":1,"baseColorTexture":{"index":0}},"alphaMode":"MASK","alphaCutoff":0.05}],"textures":[{"sampler":0,"source":0,"name":"gold_aek_971.png"}],"samplers":[{"magFilter":9728,"minFilter":9728,"wrapS":33071,"wrapT":33071}],"images":[{"mimeType":"image/png","uri":"data:image/png;base64,"}],"meshes":[{"primitives":[{"mode":4,"attributes":{"POSITION":0,"NORMAL":1,"TEXCOORD_0":2,"JOINTS_0":3,"WEIGHTS_0":4},"indices":5,"material":0}]}],"skins":[{"inverseBindMatrices":6,"joints":[0],"skeleton":0}]}